<svg width="417" height="417" viewBox="0 0 417 417" fill="none" xmlns="http://www.w3.org/2000/svg">
<g style="mix-blend-mode:lighten">
<path d="M208.333 0C323.375 0 416.667 82.875 416.667 185.188C416.65 215.879 404.449 245.309 382.745 267.009C361.04 288.71 331.608 300.906 300.917 300.917H259.958C240.75 300.917 225.229 316.438 225.229 335.646C225.229 344.438 228.708 352.542 234.021 358.563C239.583 364.813 243.062 372.917 243.062 381.938C243.062 401.167 227.083 416.667 208.333 416.667C93.2917 416.667 0 323.375 0 208.333C0 93.2917 93.2917 0 208.333 0ZM114.583 208.333C122.871 208.333 130.82 205.041 136.68 199.18C142.541 193.32 145.833 185.371 145.833 177.083C145.833 168.795 142.541 160.847 136.68 154.986C130.82 149.126 122.871 145.833 114.583 145.833C106.295 145.833 98.3468 149.126 92.4862 154.986C86.6257 160.847 83.3333 168.795 83.3333 177.083C83.3333 185.371 86.6257 193.32 92.4862 199.18C98.3468 205.041 106.295 208.333 114.583 208.333ZM302.083 208.333C310.371 208.333 318.32 205.041 324.18 199.18C330.041 193.32 333.333 185.371 333.333 177.083C333.333 168.795 330.041 160.847 324.18 154.986C318.32 149.126 310.371 145.833 302.083 145.833C293.795 145.833 285.847 149.126 279.986 154.986C274.126 160.847 270.833 168.795 270.833 177.083C270.833 185.371 274.126 193.32 279.986 199.18C285.847 205.041 293.795 208.333 302.083 208.333ZM208.333 145.833C216.621 145.833 224.57 142.541 230.43 136.68C236.291 130.82 239.583 122.871 239.583 114.583C239.583 106.295 236.291 98.3468 230.43 92.4862C224.57 86.6257 216.621 83.3333 208.333 83.3333C200.045 83.3333 192.097 86.6257 186.236 92.4862C180.376 98.3468 177.083 106.295 177.083 114.583C177.083 122.871 180.376 130.82 186.236 136.68C192.097 142.541 200.045 145.833 208.333 145.833Z" fill="black"/>
</g>
<style>@media (prefers-color-scheme:dark){:root{filter:invert(100%)}}</style>
</svg>