<svg width="24" height="24" viewBox="0 0 24 24" fill="none" xmlns="http://www.w3.org/2000/svg">
<path fill-rule="evenodd" clip-rule="evenodd" d="M15.2335 4.79221C15.4255 4.79221 15.6096 4.7139 15.7423 4.57524L16.7598 3.51336C16.8869 3.38068 17.0625 3.30587 17.2461 3.30587H17.288C17.481 3.30587 17.6645 3.38866 17.7922 3.53331L18.6496 4.50242C18.8127 4.68697 19.0471 4.79221 19.2935 4.79221H21.5924C19.4033 1.88237 15.9213 0 11.999 0C8.07662 0 4.59469 1.88237 2.40557 4.79221H15.2335ZM16.4471 8.02879H18.5619L18.5614 8.02929H23.3227C23.6523 8.96848 23.8673 9.96104 23.9531 10.991H15.033C14.7867 10.991 14.5522 10.8858 14.3891 10.7012L13.5317 9.7321C13.4041 9.58745 13.2205 9.50466 13.0275 9.50466H12.9856C12.802 9.50466 12.6265 9.57947 12.4993 9.71215L11.4818 10.774C11.3491 10.9127 11.1651 10.991 10.973 10.991H0.0449219C0.130711 9.96153 0.345682 8.96898 0.675371 8.02929H12.2514C12.6145 8.02929 12.9601 7.87317 13.2011 7.60134L13.9367 6.76989C14.0644 6.62574 14.2485 6.54294 14.441 6.54294C14.6335 6.54294 14.8176 6.62524 14.9453 6.76989L15.8032 7.739C15.9663 7.92305 16.2007 8.02879 16.4471 8.02879ZM7.16638 17.0021C7.0337 17.1408 6.84965 17.2191 6.65763 17.2191H1.19157C0.739187 16.2834 0.407004 15.2794 0.20949 14.2275H7.98935C8.35296 14.2275 8.69861 14.0714 8.93951 13.7995L9.6752 12.9681C9.80289 12.8239 9.98694 12.7411 10.1795 12.7411C10.372 12.7411 10.556 12.8234 10.6837 12.9681L11.5411 13.9372C11.7042 14.1212 11.9386 14.227 12.185 14.227H23.788C23.5905 15.2789 23.2588 16.2829 22.8059 17.2186H10.7176C10.4712 17.2186 10.2368 17.1134 10.0737 16.9288L9.21633 15.9597C9.08864 15.8156 8.9051 15.7328 8.71207 15.7328H8.67018C8.48663 15.7328 8.31106 15.8076 8.18387 15.9403L7.16638 17.0021ZM7.47264 20.1839H10.6164V20.1844H20.7719C18.5813 22.5311 15.463 24 12 24C8.53702 24 5.4182 22.5311 3.22808 20.1844H3.27696C3.64057 20.1844 3.98622 20.0283 4.22713 19.7564L4.96282 18.925C5.0905 18.7808 5.27455 18.698 5.46708 18.698C5.6596 18.698 5.84365 18.7803 5.97134 18.925L6.82873 19.8941C6.99183 20.0781 7.22625 20.1839 7.47264 20.1839Z" fill="black"/>
<style>@media (prefers-color-scheme:dark){:root{filter:invert(100%)}}</style>
</svg>
