<svg width="32" height="32" viewBox="0 0 32 32" fill="none" xmlns="http://www.w3.org/2000/svg">
<path d="M24.784 10.7061H21.9536C21.624 10.7061 21.3104 10.5653 21.092 10.3197L19.944 9.02778C19.7728 8.83498 19.5272 8.72458 19.2688 8.72458C19.0104 8.72458 18.7648 8.83498 18.5936 9.02778L17.6088 10.1357C17.2864 10.4981 16.824 10.7061 16.3376 10.7061H0.844C0.4032 11.9589 0.1152 13.2821 0 14.6556H14.6264C14.8832 14.6556 15.1296 14.5508 15.3072 14.366L16.6696 12.9501C16.84 12.7733 17.0744 12.6733 17.3208 12.6733H17.3768C17.6352 12.6733 17.8808 12.7837 18.052 12.9765L19.2 14.2684C19.4184 14.514 19.732 14.6548 20.0616 14.6548H32C31.8848 13.2821 31.5976 11.9581 31.156 10.7053H24.7832L24.784 10.7061Z" fill="black"/>
<path d="M8.8512 22.9594C9.108 22.9594 9.3544 22.8546 9.532 22.6698L10.8944 21.2539C11.0648 21.0771 11.2992 20.9771 11.5448 20.9771H11.6008C11.8592 20.9771 12.1048 21.0875 12.276 21.2803L13.424 22.5722C13.6424 22.8178 13.956 22.9586 14.2856 22.9586H30.4648C31.0704 21.7114 31.5152 20.3723 31.7792 18.9699H16.2496C15.92 18.9699 15.6064 18.8291 15.388 18.5835L14.24 17.2916C14.0688 17.0988 13.8232 16.9884 13.5648 16.9884C13.3064 16.9884 13.0608 17.0988 12.8896 17.2916L11.9048 18.3995C11.5824 18.7619 11.12 18.9699 10.6336 18.9699H0.220004C0.484804 20.3723 0.928804 21.7114 1.5344 22.9586H8.85041L8.8512 22.9594Z" fill="black"/>
<path d="M20.3288 6.39023C20.5856 6.39023 20.832 6.28544 21.0096 6.10064L22.372 4.68468C22.5424 4.50788 22.7768 4.40789 23.0232 4.40789H23.0792C23.3376 4.40789 23.5832 4.51828 23.7544 4.71108L24.9024 6.00304C25.1208 6.24864 25.4344 6.38944 25.764 6.38944H28.8408C25.9104 2.50954 21.2496 0 16 0C10.7504 0 6.08961 2.50954 3.15921 6.38944L20.3288 6.39023Z" fill="black"/>
<path d="M9.9408 26.9129C9.6112 26.9129 9.2976 26.7721 9.0792 26.5265L7.9312 25.2346C7.76 25.0418 7.5144 24.9314 7.256 24.9314C6.9976 24.9314 6.752 25.0418 6.5808 25.2346L5.596 26.3425C5.2736 26.7049 4.8112 26.9129 4.3248 26.9129H4.2592C7.1904 30.0417 11.3648 32 16 32C20.6352 32 24.8088 30.0417 27.7408 26.9129H9.9408Z" fill="black"/>
</svg>
